# xmcd
#
# Track frame offsets:
#	150
#	12767
#	24898
#	38604
#	53184
#	68832
#	83942
#	97857
#	111269
#	130898
#	144634
#	156942
#
# Disc length: 2230 seconds
#
# Revision: 0
# Processed by: cddbd v1.4PL0 Copyright (c) Steve Scherf et al.
# Submitted via: dBpowerAMP V4.0
#
DISCID=9208b40c
DTITLE=Los Dinamicos del Norte - pase y pase
DYEAR=1900
DGENRE=Banda
TTITLE0=01 - Pase y pase
TTITLE1=02 - Voy navegando
TTITLE2=03 - Media vida se me fue
TTITLE3=04 - Te quiero por que te quiero
TTITLE4=05 - Corazon de Texas
TTITLE5=06 - Que se enteren que te quiero
TTITLE6=07 - Mujer Mujer
TTITLE7=08 - Cuarenta cartas
TTITLE8=09 - Anhelo
TTITLE9=10 - Que voy a hacer sin ti
TTITLE10=11 - Y andale
TTITLE11=12 - Por tu culpa
EXTD=Necro Blue RIP
EXTT0=
EXTT1=
EXTT2=
EXTT3=
EXTT4=
EXTT5=
EXTT6=
EXTT7=
EXTT8=
EXTT9=
EXTT10=
EXTT11=
PLAYORDER=
